<mxfile host="Electron" modified="2024-01-22T12:41:39.294Z" agent="Mozilla/5.0 (Windows NT 10.0; Win64; x64) AppleWebKit/537.36 (KHTML, like Gecko) draw.io/22.0.3 Chrome/114.0.5735.289 Electron/25.8.4 Safari/537.36" etag="6BwGY3tFUzzQZG-RqpQx" version="22.0.3" type="device">
  <diagram name="第 1 页" id="itHaupZwfxeeaL8pyxsT">
    <mxGraphModel dx="1221" dy="823" grid="1" gridSize="10" guides="1" tooltips="1" connect="1" arrows="1" fold="1" page="1" pageScale="1" pageWidth="827" pageHeight="1169" math="0" shadow="0">
      <root>
        <mxCell id="0" />
        <mxCell id="1" parent="0" />
        <mxCell id="nwRDdH20In2IwsB6bDAJ-22" value="" style="rounded=0;whiteSpace=wrap;html=1;" vertex="1" parent="1">
          <mxGeometry x="200" y="157.5" width="40" height="122.5" as="geometry" />
        </mxCell>
        <mxCell id="nwRDdH20In2IwsB6bDAJ-21" value="" style="rounded=0;whiteSpace=wrap;html=1;" vertex="1" parent="1">
          <mxGeometry x="160" y="157.5" width="40" height="122.5" as="geometry" />
        </mxCell>
        <mxCell id="nwRDdH20In2IwsB6bDAJ-20" value="" style="rounded=0;whiteSpace=wrap;html=1;" vertex="1" parent="1">
          <mxGeometry x="120" y="157.5" width="40" height="122.5" as="geometry" />
        </mxCell>
        <mxCell id="nwRDdH20In2IwsB6bDAJ-19" value="" style="rounded=0;whiteSpace=wrap;html=1;" vertex="1" parent="1">
          <mxGeometry x="80" y="157.5" width="40" height="122.5" as="geometry" />
        </mxCell>
        <mxCell id="nwRDdH20In2IwsB6bDAJ-27" value="" style="ellipse;whiteSpace=wrap;html=1;opacity=50;" vertex="1" parent="1">
          <mxGeometry x="60" y="200" width="200" height="50" as="geometry" />
        </mxCell>
        <mxCell id="nwRDdH20In2IwsB6bDAJ-23" value="" style="ellipse;whiteSpace=wrap;html=1;opacity=50;" vertex="1" parent="1">
          <mxGeometry x="60" y="150" width="200" height="50" as="geometry" />
        </mxCell>
        <mxCell id="nwRDdH20In2IwsB6bDAJ-1" value="&lt;font style=&quot;font-size: 37px;&quot;&gt;9&amp;amp;5=1&lt;/font&gt;" style="text;strokeColor=none;align=center;fillColor=none;html=1;verticalAlign=middle;whiteSpace=wrap;rounded=0;" vertex="1" parent="1">
          <mxGeometry x="70" y="80" width="130" height="60" as="geometry" />
        </mxCell>
        <mxCell id="nwRDdH20In2IwsB6bDAJ-3" value="&lt;font style=&quot;font-size: 20px;&quot;&gt;1&lt;/font&gt;" style="text;strokeColor=none;align=center;fillColor=none;html=1;verticalAlign=middle;whiteSpace=wrap;rounded=0;" vertex="1" parent="1">
          <mxGeometry x="70" y="170" width="60" height="30" as="geometry" />
        </mxCell>
        <mxCell id="nwRDdH20In2IwsB6bDAJ-4" value="&lt;font style=&quot;font-size: 20px;&quot;&gt;1&lt;/font&gt;" style="text;strokeColor=none;align=center;fillColor=none;html=1;verticalAlign=middle;whiteSpace=wrap;rounded=0;" vertex="1" parent="1">
          <mxGeometry x="190" y="170" width="60" height="30" as="geometry" />
        </mxCell>
        <mxCell id="nwRDdH20In2IwsB6bDAJ-5" value="&lt;font style=&quot;font-size: 20px;&quot;&gt;0&lt;/font&gt;" style="text;strokeColor=none;align=center;fillColor=none;html=1;verticalAlign=middle;whiteSpace=wrap;rounded=0;" vertex="1" parent="1">
          <mxGeometry x="110" y="170" width="60" height="30" as="geometry" />
        </mxCell>
        <mxCell id="nwRDdH20In2IwsB6bDAJ-6" value="&lt;font style=&quot;font-size: 20px;&quot;&gt;0&lt;/font&gt;" style="text;strokeColor=none;align=center;fillColor=none;html=1;verticalAlign=middle;whiteSpace=wrap;rounded=0;" vertex="1" parent="1">
          <mxGeometry x="150" y="170" width="60" height="30" as="geometry" />
        </mxCell>
        <mxCell id="nwRDdH20In2IwsB6bDAJ-7" value="&lt;font style=&quot;font-size: 20px;&quot;&gt;0&lt;/font&gt;" style="text;strokeColor=none;align=center;fillColor=none;html=1;verticalAlign=middle;whiteSpace=wrap;rounded=0;" vertex="1" parent="1">
          <mxGeometry x="70" y="210" width="60" height="30" as="geometry" />
        </mxCell>
        <mxCell id="nwRDdH20In2IwsB6bDAJ-8" value="&lt;span style=&quot;font-size: 20px;&quot;&gt;1&lt;/span&gt;" style="text;strokeColor=none;align=center;fillColor=none;html=1;verticalAlign=middle;whiteSpace=wrap;rounded=0;" vertex="1" parent="1">
          <mxGeometry x="110" y="210" width="60" height="30" as="geometry" />
        </mxCell>
        <mxCell id="nwRDdH20In2IwsB6bDAJ-9" value="&lt;font style=&quot;font-size: 20px;&quot;&gt;0&lt;/font&gt;" style="text;strokeColor=none;align=center;fillColor=none;html=1;verticalAlign=middle;whiteSpace=wrap;rounded=0;" vertex="1" parent="1">
          <mxGeometry x="150" y="210" width="60" height="30" as="geometry" />
        </mxCell>
        <mxCell id="nwRDdH20In2IwsB6bDAJ-10" value="&lt;font style=&quot;font-size: 20px;&quot;&gt;1&lt;/font&gt;" style="text;strokeColor=none;align=center;fillColor=none;html=1;verticalAlign=middle;whiteSpace=wrap;rounded=0;" vertex="1" parent="1">
          <mxGeometry x="190" y="210" width="60" height="30" as="geometry" />
        </mxCell>
        <mxCell id="nwRDdH20In2IwsB6bDAJ-11" value="&lt;font style=&quot;font-size: 20px;&quot;&gt;&amp;amp;&lt;/font&gt;" style="text;strokeColor=none;align=center;fillColor=none;html=1;verticalAlign=middle;whiteSpace=wrap;rounded=0;" vertex="1" parent="1">
          <mxGeometry x="30" y="210" width="60" height="30" as="geometry" />
        </mxCell>
        <mxCell id="nwRDdH20In2IwsB6bDAJ-12" value="" style="endArrow=none;html=1;rounded=0;" edge="1" parent="1">
          <mxGeometry width="50" height="50" relative="1" as="geometry">
            <mxPoint x="40" y="240" as="sourcePoint" />
            <mxPoint x="240" y="240" as="targetPoint" />
          </mxGeometry>
        </mxCell>
        <mxCell id="nwRDdH20In2IwsB6bDAJ-13" value="&lt;font style=&quot;font-size: 20px;&quot;&gt;0&lt;/font&gt;" style="text;strokeColor=none;align=center;fillColor=none;html=1;verticalAlign=middle;whiteSpace=wrap;rounded=0;" vertex="1" parent="1">
          <mxGeometry x="70" y="250" width="60" height="30" as="geometry" />
        </mxCell>
        <mxCell id="nwRDdH20In2IwsB6bDAJ-14" value="&lt;font style=&quot;font-size: 20px;&quot;&gt;0&lt;/font&gt;" style="text;strokeColor=none;align=center;fillColor=none;html=1;verticalAlign=middle;whiteSpace=wrap;rounded=0;" vertex="1" parent="1">
          <mxGeometry x="110" y="250" width="60" height="30" as="geometry" />
        </mxCell>
        <mxCell id="nwRDdH20In2IwsB6bDAJ-15" value="&lt;font style=&quot;font-size: 20px;&quot;&gt;0&lt;/font&gt;" style="text;strokeColor=none;align=center;fillColor=none;html=1;verticalAlign=middle;whiteSpace=wrap;rounded=0;" vertex="1" parent="1">
          <mxGeometry x="150" y="250" width="60" height="30" as="geometry" />
        </mxCell>
        <mxCell id="nwRDdH20In2IwsB6bDAJ-16" value="&lt;font style=&quot;font-size: 20px;&quot;&gt;1&lt;/font&gt;" style="text;strokeColor=none;align=center;fillColor=none;html=1;verticalAlign=middle;whiteSpace=wrap;rounded=0;" vertex="1" parent="1">
          <mxGeometry x="190" y="250" width="60" height="30" as="geometry" />
        </mxCell>
        <mxCell id="nwRDdH20In2IwsB6bDAJ-24" value="" style="endArrow=classic;html=1;rounded=0;" edge="1" parent="1">
          <mxGeometry width="50" height="50" relative="1" as="geometry">
            <mxPoint x="414" y="195" as="sourcePoint" />
            <mxPoint x="264" y="175" as="targetPoint" />
          </mxGeometry>
        </mxCell>
        <mxCell id="nwRDdH20In2IwsB6bDAJ-26" value="&lt;font style=&quot;font-size: 17px;&quot;&gt;9的二进制&lt;/font&gt;" style="text;strokeColor=none;align=center;fillColor=none;html=1;verticalAlign=middle;whiteSpace=wrap;rounded=0;" vertex="1" parent="1">
          <mxGeometry x="420" y="180" width="100" height="30" as="geometry" />
        </mxCell>
        <mxCell id="nwRDdH20In2IwsB6bDAJ-32" value="" style="endArrow=classic;html=1;rounded=0;" edge="1" parent="1">
          <mxGeometry width="50" height="50" relative="1" as="geometry">
            <mxPoint x="410" y="250" as="sourcePoint" />
            <mxPoint x="260" y="230" as="targetPoint" />
          </mxGeometry>
        </mxCell>
        <mxCell id="nwRDdH20In2IwsB6bDAJ-33" value="&lt;font style=&quot;font-size: 17px;&quot;&gt;5的二进制&lt;/font&gt;" style="text;strokeColor=none;align=center;fillColor=none;html=1;verticalAlign=middle;whiteSpace=wrap;rounded=0;" vertex="1" parent="1">
          <mxGeometry x="416" y="235" width="100" height="30" as="geometry" />
        </mxCell>
      </root>
    </mxGraphModel>
  </diagram>
</mxfile>
